<svg xmlns="http://www.w3.org/2000/svg" xmlns:xlink="http://www.w3.org/1999/xlink" width="500" zoomAndPan="magnify" viewBox="0 0 375 374.999991" height="500" preserveAspectRatio="xMidYMid meet" version="1.0"><defs><clipPath id="c11139b49c"><path d="M 1.675781 1.675781 L 373.324219 1.675781 L 373.324219 373.324219 L 1.675781 373.324219 Z M 1.675781 1.675781 " clip-rule="nonzero"/></clipPath><clipPath id="ba649c876a"><path d="M 187.5 1.675781 C 84.871094 1.675781 1.675781 84.871094 1.675781 187.5 C 1.675781 290.128906 84.871094 373.324219 187.5 373.324219 C 290.128906 373.324219 373.324219 290.128906 373.324219 187.5 C 373.324219 84.871094 290.128906 1.675781 187.5 1.675781 Z M 187.5 1.675781 " clip-rule="nonzero"/></clipPath><clipPath id="2d8de96a1f"><path d="M 0.675781 0.675781 L 372.324219 0.675781 L 372.324219 372.324219 L 0.675781 372.324219 Z M 0.675781 0.675781 " clip-rule="nonzero"/></clipPath><clipPath id="18c672c49c"><path d="M 186.5 0.675781 C 83.871094 0.675781 0.675781 83.871094 0.675781 186.5 C 0.675781 289.128906 83.871094 372.324219 186.5 372.324219 C 289.128906 372.324219 372.324219 289.128906 372.324219 186.5 C 372.324219 83.871094 289.128906 0.675781 186.5 0.675781 Z M 186.5 0.675781 " clip-rule="nonzero"/></clipPath><clipPath id="9305272679"><rect x="0" width="373" y="0" height="373"/></clipPath><clipPath id="9f64d84864"><path d="M 69.476562 73.042969 L 297.476562 73.042969 L 297.476562 179.605469 L 69.476562 179.605469 Z M 69.476562 73.042969 " clip-rule="nonzero"/></clipPath><clipPath id="af4c5a95a2"><path d="M 70 203.734375 L 297 203.734375 L 297 301.921875 L 70 301.921875 Z M 70 203.734375 " clip-rule="nonzero"/></clipPath><clipPath id="4e6e26bd40"><path d="M 78.714844 73.042969 L 306.714844 73.042969 L 306.714844 179.605469 L 78.714844 179.605469 Z M 78.714844 73.042969 " clip-rule="nonzero"/></clipPath><clipPath id="701286ff48"><path d="M 79 203.734375 L 306.714844 203.734375 L 306.714844 301.921875 L 79 301.921875 Z M 79 203.734375 " clip-rule="nonzero"/></clipPath></defs><g clip-path="url(#c11139b49c)"><g clip-path="url(#ba649c876a)"><g transform="matrix(1, 0, 0, 1, 1, 1)"><g clip-path="url(#9305272679)"><g clip-path="url(#2d8de96a1f)"><g clip-path="url(#18c672c49c)"><path fill="#3a4e61" d="M 0.675781 0.675781 L 372.324219 0.675781 L 372.324219 372.324219 L 0.675781 372.324219 Z M 0.675781 0.675781 " fill-opacity="1" fill-rule="nonzero"/></g></g></g></g></g></g><g clip-path="url(#9f64d84864)"><path fill="#cfd9df" d="M 183.636719 97.394531 C 230.722656 97.394531 269.367188 133.523438 273.375 179.570312 L 297.792969 179.570312 C 293.730469 120.0625 244.175781 73.046875 183.636719 73.046875 C 123.09375 73.046875 73.539062 120.0625 69.476562 179.570312 L 93.898438 179.570312 C 97.90625 133.523438 136.546875 97.394531 183.636719 97.394531 " fill-opacity="1" fill-rule="nonzero"/></g><g clip-path="url(#af4c5a95a2)"><path fill="#ffffff" d="M 170.855469 203.917969 L 194.011719 210.902344 C 231.277344 222.144531 223.574219 277.140625 184.644531 277.566406 C 184.3125 277.570312 183.972656 277.570312 183.636719 277.570312 C 139.492188 277.570312 102.773438 245.828125 95.046875 203.917969 L 70.378906 203.917969 C 78.351562 259.335938 126.015625 301.921875 183.636719 301.921875 C 241.257812 301.921875 288.921875 259.335938 296.894531 203.917969 L 170.855469 203.917969 " fill-opacity="1" fill-rule="nonzero"/></g><g clip-path="url(#4e6e26bd40)"><path fill="#cfd9df" d="M 192.875 97.394531 C 239.964844 97.394531 278.605469 133.523438 282.613281 179.570312 L 307.03125 179.570312 C 302.96875 120.0625 253.414062 73.046875 192.875 73.046875 C 132.332031 73.046875 82.777344 120.0625 78.714844 179.570312 L 103.136719 179.570312 C 107.144531 133.523438 145.785156 97.394531 192.875 97.394531 " fill-opacity="1" fill-rule="nonzero"/></g><g clip-path="url(#701286ff48)"><path fill="#ffffff" d="M 180.09375 203.917969 L 203.25 210.902344 C 240.515625 222.144531 232.8125 277.140625 193.882812 277.566406 C 193.550781 277.570312 193.210938 277.570312 192.875 277.570312 C 148.730469 277.570312 112.011719 245.828125 104.285156 203.917969 L 79.617188 203.917969 C 87.589844 259.335938 135.253906 301.921875 192.875 301.921875 C 250.496094 301.921875 298.160156 259.335938 306.132812 203.917969 L 180.09375 203.917969 " fill-opacity="1" fill-rule="nonzero"/></g></svg>