<svg xmlns="http://www.w3.org/2000/svg" xmlns:xlink="http://www.w3.org/1999/xlink" width="225" zoomAndPan="magnify" viewBox="0 0 168.75 44.999999" height="60" preserveAspectRatio="xMidYMid meet" version="1.0"><defs><g/><clipPath id="14f39fdc3d"><path d="M 1.046875 3.140625 L 41.265625 3.140625 L 41.265625 43.355469 L 1.046875 43.355469 Z M 1.046875 3.140625 " clip-rule="nonzero"/></clipPath><clipPath id="3b06dbbb99"><path d="M 21.15625 3.140625 C 10.050781 3.140625 1.046875 12.144531 1.046875 23.25 C 1.046875 34.355469 10.050781 43.355469 21.15625 43.355469 C 32.261719 43.355469 41.265625 34.355469 41.265625 23.25 C 41.265625 12.144531 32.261719 3.140625 21.15625 3.140625 Z M 21.15625 3.140625 " clip-rule="nonzero"/></clipPath><clipPath id="9ab818197f"><path d="M 0.046875 0.140625 L 40.265625 0.140625 L 40.265625 40.355469 L 0.046875 40.355469 Z M 0.046875 0.140625 " clip-rule="nonzero"/></clipPath><clipPath id="8935209d7d"><path d="M 20.15625 0.140625 C 9.050781 0.140625 0.046875 9.144531 0.046875 20.25 C 0.046875 31.355469 9.050781 40.355469 20.15625 40.355469 C 31.261719 40.355469 40.265625 31.355469 40.265625 20.25 C 40.265625 9.144531 31.261719 0.140625 20.15625 0.140625 Z M 20.15625 0.140625 " clip-rule="nonzero"/></clipPath><clipPath id="656b6ff9aa"><rect x="0" width="41" y="0" height="41"/></clipPath><clipPath id="731774bd8f"><path d="M 8.386719 10.859375 L 33.089844 10.859375 L 33.089844 22.390625 L 8.386719 22.390625 Z M 8.386719 10.859375 " clip-rule="nonzero"/></clipPath><clipPath id="3710c690df"><path d="M 8.386719 25 L 33 25 L 33 35.546875 L 8.386719 35.546875 Z M 8.386719 25 " clip-rule="nonzero"/></clipPath><clipPath id="954c986f85"><path d="M 10.027344 10.859375 L 34.730469 10.859375 L 34.730469 22.390625 L 10.027344 22.390625 Z M 10.027344 10.859375 " clip-rule="nonzero"/></clipPath><clipPath id="d0fbeb2e41"><path d="M 10.027344 25 L 34.71875 25 L 34.71875 35.546875 L 10.027344 35.546875 Z M 10.027344 25 " clip-rule="nonzero"/></clipPath><clipPath id="0c4e4878a4"><path d="M 59 28 L 168.5 28 L 168.5 40 L 59 40 Z M 59 28 " clip-rule="nonzero"/></clipPath><clipPath id="6a65c39310"><rect x="0" width="110" y="0" height="12"/></clipPath><clipPath id="544efb93fe"><rect x="0" width="103" y="0" height="25"/></clipPath></defs><g clip-path="url(#14f39fdc3d)"><g clip-path="url(#3b06dbbb99)"><g transform="matrix(1, 0, 0, 1, 1, 3)"><g clip-path="url(#656b6ff9aa)"><g clip-path="url(#9ab818197f)"><g clip-path="url(#8935209d7d)"><path fill="#3a4e61" d="M 0.046875 0.140625 L 40.265625 0.140625 L 40.265625 40.355469 L 0.046875 40.355469 Z M 0.046875 0.140625 " fill-opacity="1" fill-rule="nonzero"/></g></g></g></g></g></g><g clip-path="url(#731774bd8f)"><path fill="#d0dddc" d="M 20.738281 13.496094 C 25.832031 13.496094 30.011719 17.402344 30.445312 22.386719 L 33.089844 22.386719 C 32.648438 15.949219 27.285156 10.859375 20.738281 10.859375 C 14.1875 10.859375 8.824219 15.949219 8.386719 22.386719 L 11.027344 22.386719 C 11.460938 17.402344 15.640625 13.496094 20.738281 13.496094 " fill-opacity="1" fill-rule="nonzero"/></g><g clip-path="url(#3710c690df)"><path fill="#cfd9df" d="M 19.355469 25.019531 L 21.859375 25.777344 C 25.890625 26.992188 25.058594 32.941406 20.847656 32.988281 C 20.808594 32.988281 20.773438 32.988281 20.738281 32.988281 C 15.960938 32.988281 11.988281 29.554688 11.152344 25.019531 L 8.484375 25.019531 C 9.34375 31.015625 14.503906 35.625 20.738281 35.625 C 26.972656 35.625 32.128906 31.015625 32.992188 25.019531 L 19.355469 25.019531 " fill-opacity="1" fill-rule="nonzero"/></g><g clip-path="url(#954c986f85)"><path fill="#d0dddc" d="M 22.378906 13.496094 C 27.472656 13.496094 31.652344 17.402344 32.089844 22.386719 L 34.730469 22.386719 C 34.289062 15.949219 28.929688 10.859375 22.378906 10.859375 C 15.828125 10.859375 10.464844 15.949219 10.027344 22.386719 L 12.667969 22.386719 C 13.101562 17.402344 17.285156 13.496094 22.378906 13.496094 " fill-opacity="1" fill-rule="nonzero"/></g><g clip-path="url(#d0fbeb2e41)"><path fill="#fafafa" d="M 20.996094 25.019531 L 23.5 25.777344 C 27.53125 26.992188 26.699219 32.941406 22.488281 32.988281 C 22.453125 32.988281 22.414062 32.988281 22.378906 32.988281 C 17.601562 32.988281 13.628906 29.554688 12.792969 25.019531 L 10.125 25.019531 C 10.988281 31.015625 16.144531 35.625 22.378906 35.625 C 28.613281 35.625 33.769531 31.015625 34.632812 25.019531 L 20.996094 25.019531 " fill-opacity="1" fill-rule="nonzero"/></g><g clip-path="url(#0c4e4878a4)"><g transform="matrix(1, 0, 0, 1, 59, 28)"><g clip-path="url(#6a65c39310)"><g fill="#a6a6a6" fill-opacity="1"><g transform="translate(1.600025, 9.527948)"><g><path d="M 4.078125 -2.40625 L 3.3125 -4.53125 C 3.269531 -4.625 3.226562 -4.734375 3.1875 -4.859375 C 3.144531 -4.992188 3.101562 -5.132812 3.0625 -5.28125 C 3.019531 -5.132812 2.976562 -4.992188 2.9375 -4.859375 C 2.894531 -4.734375 2.859375 -4.625 2.828125 -4.53125 L 2.046875 -2.40625 Z M 6.1875 0 L 5.265625 0 C 5.160156 0 5.070312 -0.0234375 5 -0.078125 C 4.9375 -0.128906 4.890625 -0.191406 4.859375 -0.265625 L 4.390625 -1.578125 L 1.75 -1.578125 L 1.265625 -0.265625 C 1.242188 -0.203125 1.195312 -0.140625 1.125 -0.078125 C 1.0625 -0.0234375 0.976562 0 0.875 0 L -0.046875 0 L 2.46875 -6.375 L 3.671875 -6.375 Z M 6.1875 0 "/></g></g></g><g fill="#a6a6a6" fill-opacity="1"><g transform="translate(12.922792, 9.527948)"><g><path d="M 5.09375 -1.5 C 5.15625 -1.5 5.210938 -1.476562 5.265625 -1.4375 L 5.734375 -0.921875 C 5.472656 -0.597656 5.15625 -0.347656 4.78125 -0.171875 C 4.40625 -0.00390625 3.953125 0.078125 3.421875 0.078125 C 2.941406 0.078125 2.515625 -0.00390625 2.140625 -0.171875 C 1.765625 -0.335938 1.441406 -0.5625 1.171875 -0.84375 C 0.898438 -1.132812 0.691406 -1.476562 0.546875 -1.875 C 0.410156 -2.28125 0.34375 -2.71875 0.34375 -3.1875 C 0.34375 -3.664062 0.414062 -4.101562 0.5625 -4.5 C 0.71875 -4.90625 0.9375 -5.25 1.21875 -5.53125 C 1.5 -5.820312 1.832031 -6.046875 2.21875 -6.203125 C 2.601562 -6.367188 3.023438 -6.453125 3.484375 -6.453125 C 3.953125 -6.453125 4.363281 -6.375 4.71875 -6.21875 C 5.082031 -6.070312 5.394531 -5.875 5.65625 -5.625 L 5.25 -5.078125 C 5.226562 -5.035156 5.195312 -5 5.15625 -4.96875 C 5.125 -4.945312 5.078125 -4.9375 5.015625 -4.9375 C 4.960938 -4.9375 4.910156 -4.945312 4.859375 -4.96875 C 4.816406 -5 4.769531 -5.03125 4.71875 -5.0625 C 4.664062 -5.101562 4.601562 -5.144531 4.53125 -5.1875 C 4.457031 -5.226562 4.367188 -5.269531 4.265625 -5.3125 C 4.171875 -5.351562 4.054688 -5.382812 3.921875 -5.40625 C 3.796875 -5.425781 3.648438 -5.4375 3.484375 -5.4375 C 3.203125 -5.4375 2.941406 -5.382812 2.703125 -5.28125 C 2.460938 -5.1875 2.257812 -5.039062 2.09375 -4.84375 C 1.925781 -4.65625 1.789062 -4.421875 1.6875 -4.140625 C 1.59375 -3.859375 1.546875 -3.539062 1.546875 -3.1875 C 1.546875 -2.832031 1.597656 -2.515625 1.703125 -2.234375 C 1.804688 -1.953125 1.941406 -1.710938 2.109375 -1.515625 C 2.285156 -1.328125 2.488281 -1.179688 2.71875 -1.078125 C 2.957031 -0.984375 3.210938 -0.9375 3.484375 -0.9375 C 3.648438 -0.9375 3.796875 -0.941406 3.921875 -0.953125 C 4.054688 -0.972656 4.175781 -1.003906 4.28125 -1.046875 C 4.394531 -1.085938 4.5 -1.132812 4.59375 -1.1875 C 4.695312 -1.25 4.800781 -1.328125 4.90625 -1.421875 C 4.925781 -1.441406 4.953125 -1.457031 4.984375 -1.46875 C 5.023438 -1.488281 5.0625 -1.5 5.09375 -1.5 Z M 5.09375 -1.5 "/></g></g></g><g fill="#a6a6a6" fill-opacity="1"><g transform="translate(24.007265, 9.527948)"><g><path d="M 5.09375 -1.5 C 5.15625 -1.5 5.210938 -1.476562 5.265625 -1.4375 L 5.734375 -0.921875 C 5.472656 -0.597656 5.15625 -0.347656 4.78125 -0.171875 C 4.40625 -0.00390625 3.953125 0.078125 3.421875 0.078125 C 2.941406 0.078125 2.515625 -0.00390625 2.140625 -0.171875 C 1.765625 -0.335938 1.441406 -0.5625 1.171875 -0.84375 C 0.898438 -1.132812 0.691406 -1.476562 0.546875 -1.875 C 0.410156 -2.28125 0.34375 -2.71875 0.34375 -3.1875 C 0.34375 -3.664062 0.414062 -4.101562 0.5625 -4.5 C 0.71875 -4.90625 0.9375 -5.25 1.21875 -5.53125 C 1.5 -5.820312 1.832031 -6.046875 2.21875 -6.203125 C 2.601562 -6.367188 3.023438 -6.453125 3.484375 -6.453125 C 3.953125 -6.453125 4.363281 -6.375 4.71875 -6.21875 C 5.082031 -6.070312 5.394531 -5.875 5.65625 -5.625 L 5.25 -5.078125 C 5.226562 -5.035156 5.195312 -5 5.15625 -4.96875 C 5.125 -4.945312 5.078125 -4.9375 5.015625 -4.9375 C 4.960938 -4.9375 4.910156 -4.945312 4.859375 -4.96875 C 4.816406 -5 4.769531 -5.03125 4.71875 -5.0625 C 4.664062 -5.101562 4.601562 -5.144531 4.53125 -5.1875 C 4.457031 -5.226562 4.367188 -5.269531 4.265625 -5.3125 C 4.171875 -5.351562 4.054688 -5.382812 3.921875 -5.40625 C 3.796875 -5.425781 3.648438 -5.4375 3.484375 -5.4375 C 3.203125 -5.4375 2.941406 -5.382812 2.703125 -5.28125 C 2.460938 -5.1875 2.257812 -5.039062 2.09375 -4.84375 C 1.925781 -4.65625 1.789062 -4.421875 1.6875 -4.140625 C 1.59375 -3.859375 1.546875 -3.539062 1.546875 -3.1875 C 1.546875 -2.832031 1.597656 -2.515625 1.703125 -2.234375 C 1.804688 -1.953125 1.941406 -1.710938 2.109375 -1.515625 C 2.285156 -1.328125 2.488281 -1.179688 2.71875 -1.078125 C 2.957031 -0.984375 3.210938 -0.9375 3.484375 -0.9375 C 3.648438 -0.9375 3.796875 -0.941406 3.921875 -0.953125 C 4.054688 -0.972656 4.175781 -1.003906 4.28125 -1.046875 C 4.394531 -1.085938 4.5 -1.132812 4.59375 -1.1875 C 4.695312 -1.25 4.800781 -1.328125 4.90625 -1.421875 C 4.925781 -1.441406 4.953125 -1.457031 4.984375 -1.46875 C 5.023438 -1.488281 5.0625 -1.5 5.09375 -1.5 Z M 5.09375 -1.5 "/></g></g></g><g fill="#a6a6a6" fill-opacity="1"><g transform="translate(35.091737, 9.527948)"><g><path d="M 6.796875 -3.1875 C 6.796875 -2.71875 6.71875 -2.285156 6.5625 -1.890625 C 6.40625 -1.492188 6.1875 -1.148438 5.90625 -0.859375 C 5.625 -0.566406 5.285156 -0.335938 4.890625 -0.171875 C 4.492188 -0.00390625 4.050781 0.078125 3.5625 0.078125 C 3.082031 0.078125 2.644531 -0.00390625 2.25 -0.171875 C 1.851562 -0.335938 1.507812 -0.566406 1.21875 -0.859375 C 0.9375 -1.148438 0.71875 -1.492188 0.5625 -1.890625 C 0.40625 -2.285156 0.328125 -2.71875 0.328125 -3.1875 C 0.328125 -3.65625 0.40625 -4.085938 0.5625 -4.484375 C 0.71875 -4.890625 0.9375 -5.238281 1.21875 -5.53125 C 1.507812 -5.820312 1.851562 -6.046875 2.25 -6.203125 C 2.644531 -6.367188 3.082031 -6.453125 3.5625 -6.453125 C 3.882812 -6.453125 4.1875 -6.414062 4.46875 -6.34375 C 4.757812 -6.269531 5.023438 -6.160156 5.265625 -6.015625 C 5.503906 -5.878906 5.71875 -5.710938 5.90625 -5.515625 C 6.09375 -5.328125 6.253906 -5.109375 6.390625 -4.859375 C 6.523438 -4.617188 6.625 -4.359375 6.6875 -4.078125 C 6.757812 -3.796875 6.796875 -3.5 6.796875 -3.1875 Z M 5.578125 -3.1875 C 5.578125 -3.539062 5.53125 -3.851562 5.4375 -4.125 C 5.34375 -4.40625 5.207031 -4.644531 5.03125 -4.84375 C 4.863281 -5.039062 4.65625 -5.1875 4.40625 -5.28125 C 4.15625 -5.382812 3.875 -5.4375 3.5625 -5.4375 C 3.25 -5.4375 2.96875 -5.382812 2.71875 -5.28125 C 2.476562 -5.1875 2.269531 -5.039062 2.09375 -4.84375 C 1.914062 -4.644531 1.78125 -4.40625 1.6875 -4.125 C 1.59375 -3.851562 1.546875 -3.539062 1.546875 -3.1875 C 1.546875 -2.84375 1.59375 -2.53125 1.6875 -2.25 C 1.78125 -1.96875 1.914062 -1.726562 2.09375 -1.53125 C 2.269531 -1.34375 2.476562 -1.195312 2.71875 -1.09375 C 2.96875 -0.988281 3.25 -0.9375 3.5625 -0.9375 C 3.875 -0.9375 4.15625 -0.988281 4.40625 -1.09375 C 4.65625 -1.195312 4.863281 -1.34375 5.03125 -1.53125 C 5.207031 -1.726562 5.34375 -1.96875 5.4375 -2.25 C 5.53125 -2.53125 5.578125 -2.84375 5.578125 -3.1875 Z M 5.578125 -3.1875 "/></g></g></g><g fill="#a6a6a6" fill-opacity="1"><g transform="translate(47.605914, 9.527948)"><g><path d="M 3.28125 -0.953125 C 3.507812 -0.953125 3.710938 -0.988281 3.890625 -1.0625 C 4.078125 -1.144531 4.226562 -1.253906 4.34375 -1.390625 C 4.46875 -1.535156 4.5625 -1.703125 4.625 -1.890625 C 4.695312 -2.085938 4.734375 -2.3125 4.734375 -2.5625 L 4.734375 -6.375 L 5.921875 -6.375 L 5.921875 -2.5625 C 5.921875 -2.175781 5.859375 -1.820312 5.734375 -1.5 C 5.617188 -1.1875 5.445312 -0.910156 5.21875 -0.671875 C 4.988281 -0.441406 4.707031 -0.257812 4.375 -0.125 C 4.050781 0.0078125 3.6875 0.078125 3.28125 0.078125 C 2.863281 0.078125 2.492188 0.0078125 2.171875 -0.125 C 1.847656 -0.257812 1.570312 -0.441406 1.34375 -0.671875 C 1.113281 -0.910156 0.9375 -1.1875 0.8125 -1.5 C 0.6875 -1.820312 0.625 -2.175781 0.625 -2.5625 L 0.625 -6.375 L 1.8125 -6.375 L 1.8125 -2.5625 C 1.8125 -2.320312 1.84375 -2.101562 1.90625 -1.90625 C 1.976562 -1.707031 2.078125 -1.535156 2.203125 -1.390625 C 2.328125 -1.253906 2.476562 -1.144531 2.65625 -1.0625 C 2.84375 -0.988281 3.050781 -0.953125 3.28125 -0.953125 Z M 3.28125 -0.953125 "/></g></g></g><g fill="#a6a6a6" fill-opacity="1"><g transform="translate(59.542033, 9.527948)"><g><path d="M 6.09375 -6.375 L 6.09375 0 L 5.484375 0 C 5.390625 0 5.3125 -0.015625 5.25 -0.046875 C 5.1875 -0.078125 5.125 -0.128906 5.0625 -0.203125 L 1.734375 -4.453125 C 1.742188 -4.265625 1.75 -4.085938 1.75 -3.921875 L 1.75 0 L 0.703125 0 L 0.703125 -6.375 L 1.328125 -6.375 C 1.378906 -6.375 1.421875 -6.375 1.453125 -6.375 C 1.492188 -6.375 1.53125 -6.363281 1.5625 -6.34375 C 1.59375 -6.332031 1.617188 -6.3125 1.640625 -6.28125 C 1.671875 -6.257812 1.703125 -6.226562 1.734375 -6.1875 L 5.078125 -1.921875 C 5.066406 -2.023438 5.054688 -2.125 5.046875 -2.21875 C 5.046875 -2.320312 5.046875 -2.414062 5.046875 -2.5 L 5.046875 -6.375 Z M 6.09375 -6.375 "/></g></g></g><g fill="#a6a6a6" fill-opacity="1"><g transform="translate(71.725256, 9.527948)"><g><path d="M 5.171875 -5.40625 L 3.25 -5.40625 L 3.25 0 L 2.0625 0 L 2.0625 -5.40625 L 0.125 -5.40625 L 0.125 -6.375 L 5.171875 -6.375 Z M 5.171875 -5.40625 "/></g></g></g><g fill="#a6a6a6" fill-opacity="1"><g transform="translate(82.403779, 9.527948)"><g><path d="M 1.90625 0 L 0.703125 0 L 0.703125 -6.375 L 1.90625 -6.375 Z M 1.90625 0 "/></g></g></g><g fill="#a6a6a6" fill-opacity="1"><g transform="translate(90.403834, 9.527948)"><g><path d="M 6.09375 -6.375 L 6.09375 0 L 5.484375 0 C 5.390625 0 5.3125 -0.015625 5.25 -0.046875 C 5.1875 -0.078125 5.125 -0.128906 5.0625 -0.203125 L 1.734375 -4.453125 C 1.742188 -4.265625 1.75 -4.085938 1.75 -3.921875 L 1.75 0 L 0.703125 0 L 0.703125 -6.375 L 1.328125 -6.375 C 1.378906 -6.375 1.421875 -6.375 1.453125 -6.375 C 1.492188 -6.375 1.53125 -6.363281 1.5625 -6.34375 C 1.59375 -6.332031 1.617188 -6.3125 1.640625 -6.28125 C 1.671875 -6.257812 1.703125 -6.226562 1.734375 -6.1875 L 5.078125 -1.921875 C 5.066406 -2.023438 5.054688 -2.125 5.046875 -2.21875 C 5.046875 -2.320312 5.046875 -2.414062 5.046875 -2.5 L 5.046875 -6.375 Z M 6.09375 -6.375 "/></g></g></g><g fill="#a6a6a6" fill-opacity="1"><g transform="translate(102.587057, 9.527948)"><g><path d="M 5.96875 -3.203125 L 5.96875 -0.625 C 5.644531 -0.382812 5.300781 -0.207031 4.9375 -0.09375 C 4.570312 0.0195312 4.179688 0.078125 3.765625 0.078125 C 3.242188 0.078125 2.769531 -0.00390625 2.34375 -0.171875 C 1.925781 -0.335938 1.566406 -0.5625 1.265625 -0.84375 C 0.960938 -1.132812 0.726562 -1.476562 0.5625 -1.875 C 0.40625 -2.28125 0.328125 -2.71875 0.328125 -3.1875 C 0.328125 -3.664062 0.40625 -4.101562 0.5625 -4.5 C 0.71875 -4.90625 0.9375 -5.253906 1.21875 -5.546875 C 1.507812 -5.835938 1.859375 -6.0625 2.265625 -6.21875 C 2.679688 -6.375 3.144531 -6.453125 3.65625 -6.453125 C 3.90625 -6.453125 4.144531 -6.429688 4.375 -6.390625 C 4.601562 -6.347656 4.8125 -6.289062 5 -6.21875 C 5.195312 -6.144531 5.375 -6.054688 5.53125 -5.953125 C 5.6875 -5.847656 5.832031 -5.738281 5.96875 -5.625 L 5.625 -5.078125 C 5.570312 -4.992188 5.503906 -4.941406 5.421875 -4.921875 C 5.335938 -4.898438 5.242188 -4.921875 5.140625 -4.984375 C 5.046875 -5.046875 4.945312 -5.101562 4.84375 -5.15625 C 4.75 -5.207031 4.640625 -5.253906 4.515625 -5.296875 C 4.398438 -5.335938 4.269531 -5.367188 4.125 -5.390625 C 3.976562 -5.421875 3.804688 -5.4375 3.609375 -5.4375 C 3.296875 -5.4375 3.007812 -5.382812 2.75 -5.28125 C 2.5 -5.175781 2.285156 -5.023438 2.109375 -4.828125 C 1.929688 -4.628906 1.789062 -4.390625 1.6875 -4.109375 C 1.59375 -3.835938 1.546875 -3.53125 1.546875 -3.1875 C 1.546875 -2.820312 1.597656 -2.492188 1.703125 -2.203125 C 1.804688 -1.921875 1.953125 -1.679688 2.140625 -1.484375 C 2.328125 -1.285156 2.554688 -1.132812 2.828125 -1.03125 C 3.097656 -0.925781 3.394531 -0.875 3.71875 -0.875 C 3.957031 -0.875 4.171875 -0.898438 4.359375 -0.953125 C 4.546875 -1.003906 4.726562 -1.070312 4.90625 -1.15625 L 4.90625 -2.3125 L 4.09375 -2.3125 C 4.019531 -2.3125 3.960938 -2.332031 3.921875 -2.375 C 3.878906 -2.414062 3.859375 -2.46875 3.859375 -2.53125 L 3.859375 -3.203125 Z M 5.96875 -3.203125 "/></g></g></g></g></g></g><g transform="matrix(1, 0, 0, 1, 57, 5)"><g clip-path="url(#544efb93fe)"><g fill="#3a4e61" fill-opacity="1"><g transform="translate(0.596039, 19.411646)"><g><path d="M 8.296875 -2.171875 C 9.085938 -2.171875 9.851562 -2.285156 10.59375 -2.515625 C 11.332031 -2.742188 11.90625 -3.039062 12.3125 -3.40625 L 12.3125 -5.40625 L 8.78125 -5.40625 L 8.78125 -7.65625 L 15.09375 -7.65625 L 15.09375 -2.3125 C 14.332031 -1.53125 13.332031 -0.914062 12.09375 -0.46875 C 10.863281 -0.0195312 9.570312 0.203125 8.21875 0.203125 C 5.851562 0.203125 4.035156 -0.445312 2.765625 -1.75 C 1.492188 -3.0625 0.859375 -4.921875 0.859375 -7.328125 C 0.859375 -9.710938 1.5 -11.539062 2.78125 -12.8125 C 4.0625 -14.09375 5.898438 -14.734375 8.296875 -14.734375 C 11.703125 -14.734375 13.867188 -13.472656 14.796875 -10.953125 L 11.984375 -10.109375 C 11.679688 -10.835938 11.207031 -11.390625 10.5625 -11.765625 C 9.914062 -12.148438 9.160156 -12.34375 8.296875 -12.34375 C 6.867188 -12.34375 5.78125 -11.910156 5.03125 -11.046875 C 4.289062 -10.179688 3.921875 -8.941406 3.921875 -7.328125 C 3.921875 -5.679688 4.300781 -4.410156 5.0625 -3.515625 C 5.832031 -2.617188 6.910156 -2.171875 8.296875 -2.171875 Z M 8.296875 -2.171875 "/></g></g></g><g fill="#3a4e61" fill-opacity="1"><g transform="translate(17.000188, 19.411646)"><g><path d="M 1.46875 -13.15625 L 1.46875 -15.28125 L 4.359375 -15.28125 L 4.359375 -13.15625 Z M 1.46875 0 L 1.46875 -11.140625 L 4.359375 -11.140625 L 4.359375 0 Z M 1.46875 0 "/></g></g></g><g fill="#3a4e61" fill-opacity="1"><g transform="translate(22.859552, 19.411646)"><g><path d="M 7.53125 0 L 4.0625 0 L 0.078125 -11.140625 L 3.140625 -11.140625 L 5.09375 -4.90625 C 5.195312 -4.5625 5.4375 -3.707031 5.8125 -2.34375 C 5.882812 -2.625 6.023438 -3.113281 6.234375 -3.8125 C 6.453125 -4.519531 7.242188 -6.960938 8.609375 -11.140625 L 11.640625 -11.140625 Z M 7.53125 0 "/></g></g></g><g fill="#3a4e61" fill-opacity="1"><g transform="translate(34.588573, 19.411646)"><g><path d="M 1.46875 -13.15625 L 1.46875 -15.28125 L 4.359375 -15.28125 L 4.359375 -13.15625 Z M 1.46875 0 L 1.46875 -11.140625 L 4.359375 -11.140625 L 4.359375 0 Z M 1.46875 0 "/></g></g></g><g fill="#3a4e61" fill-opacity="1"><g transform="translate(40.447937, 19.411646)"><g><path d="M 8.6875 0 L 8.6875 -6.25 C 8.6875 -8.207031 8.023438 -9.1875 6.703125 -9.1875 C 6.003906 -9.1875 5.4375 -8.882812 5 -8.28125 C 4.570312 -7.6875 4.359375 -6.914062 4.359375 -5.96875 L 4.359375 0 L 1.46875 0 L 1.46875 -8.65625 C 1.46875 -9.25 1.457031 -9.734375 1.4375 -10.109375 C 1.425781 -10.492188 1.410156 -10.835938 1.390625 -11.140625 L 4.15625 -11.140625 C 4.175781 -11.015625 4.203125 -10.664062 4.234375 -10.09375 C 4.265625 -9.53125 4.28125 -9.144531 4.28125 -8.9375 L 4.328125 -8.9375 C 4.710938 -9.78125 5.203125 -10.394531 5.796875 -10.78125 C 6.390625 -11.164062 7.09375 -11.359375 7.90625 -11.359375 C 9.09375 -11.359375 10 -10.992188 10.625 -10.265625 C 11.257812 -9.535156 11.578125 -8.472656 11.578125 -7.078125 L 11.578125 0 Z M 8.6875 0 "/></g></g></g><g fill="#3a4e61" fill-opacity="1"><g transform="translate(53.330293, 19.411646)"><g><path d="M 6.140625 4.46875 C 4.773438 4.46875 3.675781 4.207031 2.84375 3.6875 C 2.019531 3.175781 1.515625 2.4375 1.328125 1.46875 L 4.21875 1.140625 C 4.320312 1.578125 4.539062 1.921875 4.875 2.171875 C 5.21875 2.429688 5.664062 2.5625 6.21875 2.5625 C 7.019531 2.5625 7.601562 2.3125 7.96875 1.8125 C 8.34375 1.320312 8.53125 0.59375 8.53125 -0.375 L 8.53125 -0.96875 L 8.5625 -2.0625 L 8.53125 -2.0625 C 7.894531 -0.695312 6.703125 -0.015625 4.953125 -0.015625 C 3.648438 -0.015625 2.640625 -0.503906 1.921875 -1.484375 C 1.210938 -2.460938 0.859375 -3.859375 0.859375 -5.671875 C 0.859375 -7.484375 1.222656 -8.882812 1.953125 -9.875 C 2.691406 -10.863281 3.765625 -11.359375 5.171875 -11.359375 C 6.785156 -11.359375 7.90625 -10.691406 8.53125 -9.359375 L 8.59375 -9.359375 C 8.59375 -9.597656 8.609375 -9.921875 8.640625 -10.328125 C 8.671875 -10.742188 8.703125 -11.015625 8.734375 -11.140625 L 11.46875 -11.140625 C 11.425781 -10.398438 11.40625 -9.539062 11.40625 -8.5625 L 11.40625 -0.34375 C 11.40625 1.25 10.957031 2.445312 10.0625 3.25 C 9.164062 4.0625 7.859375 4.46875 6.140625 4.46875 Z M 8.5625 -5.734375 C 8.5625 -6.878906 8.351562 -7.769531 7.9375 -8.40625 C 7.53125 -9.050781 6.953125 -9.375 6.203125 -9.375 C 4.660156 -9.375 3.890625 -8.140625 3.890625 -5.671875 C 3.890625 -3.242188 4.65625 -2.03125 6.1875 -2.03125 C 6.945312 -2.03125 7.53125 -2.347656 7.9375 -2.984375 C 8.351562 -3.628906 8.5625 -4.546875 8.5625 -5.734375 Z M 8.5625 -5.734375 "/></g></g></g><g fill="#3a4e61" fill-opacity="1"><g transform="translate(66.212649, 19.411646)"><g><path d="M 11.671875 0 L 10.375 -3.703125 L 4.84375 -3.703125 L 3.5625 0 L 0.53125 0 L 5.8125 -14.515625 L 9.40625 -14.515625 L 14.671875 0 Z M 7.609375 -12.28125 L 7.546875 -12.046875 C 7.484375 -11.804688 7.398438 -11.523438 7.296875 -11.203125 C 7.203125 -10.890625 6.613281 -9.15625 5.53125 -6 L 9.703125 -6 L 8.265625 -10.171875 L 7.828125 -11.5625 Z M 7.609375 -12.28125 "/></g></g></g><g fill="#3a4e61" fill-opacity="1"><g transform="translate(81.442868, 19.411646)"><g><path d="M 1.46875 0 L 1.46875 -8.53125 C 1.46875 -9.132812 1.457031 -9.640625 1.4375 -10.046875 C 1.425781 -10.460938 1.410156 -10.828125 1.390625 -11.140625 L 4.15625 -11.140625 C 4.175781 -11.015625 4.203125 -10.640625 4.234375 -10.015625 C 4.265625 -9.390625 4.28125 -8.972656 4.28125 -8.765625 L 4.328125 -8.765625 C 4.609375 -9.546875 4.859375 -10.09375 5.078125 -10.40625 C 5.296875 -10.726562 5.554688 -10.96875 5.859375 -11.125 C 6.160156 -11.28125 6.539062 -11.359375 7 -11.359375 C 7.363281 -11.359375 7.660156 -11.304688 7.890625 -11.203125 L 7.890625 -8.78125 C 7.421875 -8.882812 7.007812 -8.9375 6.65625 -8.9375 C 5.9375 -8.9375 5.375 -8.644531 4.96875 -8.0625 C 4.5625 -7.476562 4.359375 -6.613281 4.359375 -5.46875 L 4.359375 0 Z M 1.46875 0 "/></g></g></g><g fill="#3a4e61" fill-opacity="1"><g transform="translate(89.650095, 19.411646)"><g><path d="M 6.125 0.203125 C 4.425781 0.203125 3.117188 -0.296875 2.203125 -1.296875 C 1.285156 -2.304688 0.828125 -3.710938 0.828125 -5.515625 C 0.828125 -7.347656 1.289062 -8.773438 2.21875 -9.796875 C 3.144531 -10.828125 4.457031 -11.34375 6.15625 -11.34375 C 7.46875 -11.34375 8.550781 -11.015625 9.40625 -10.359375 C 10.269531 -9.703125 10.8125 -8.789062 11.03125 -7.625 L 8.109375 -7.484375 C 8.035156 -8.054688 7.832031 -8.507812 7.5 -8.84375 C 7.164062 -9.1875 6.695312 -9.359375 6.09375 -9.359375 C 4.601562 -9.359375 3.859375 -8.113281 3.859375 -5.625 C 3.859375 -3.050781 4.617188 -1.765625 6.140625 -1.765625 C 6.691406 -1.765625 7.148438 -1.9375 7.515625 -2.28125 C 7.890625 -2.632812 8.117188 -3.15625 8.203125 -3.84375 L 11.109375 -3.703125 C 11.003906 -2.941406 10.726562 -2.257812 10.28125 -1.65625 C 9.84375 -1.0625 9.265625 -0.601562 8.546875 -0.28125 C 7.828125 0.0390625 7.019531 0.203125 6.125 0.203125 Z M 6.125 0.203125 "/></g></g></g></g></g></svg>